<svg width="230" height="230" viewBox="0 0 230 230" fill="none" xmlns="http://www.w3.org/2000/svg">
<path fill-rule="evenodd" clip-rule="evenodd" d="M219.236 86.5289C234.961 144.097 201.038 203.513 143.471 219.236C108.958 228.663 73.782 220.247 47.754 199.589C46.1517 198.319 43.8697 198.403 42.1833 199.562C40.7813 200.524 40.503 202.601 41.8156 203.681C69.6607 226.62 107.844 236.136 145.292 225.909C206.546 209.178 242.639 145.96 225.908 84.7068C209.178 23.4539 145.96 -12.6388 84.707 4.09148C23.4539 20.8218 -12.6388 84.0395 4.09148 145.292C5.26463 149.588 6.66646 153.759 8.27999 157.797C9.23413 160.185 12.3831 160.685 14.5027 159.23C15.3256 158.666 15.6789 157.604 15.2951 156.684C13.5257 152.435 12.0073 148.028 10.7626 143.471C-4.96134 85.9018 28.9604 26.4866 86.5291 10.7626C144.098 -4.96134 203.513 28.9604 219.236 86.5289Z" fill="#E2E8F0"/>
<path d="M32.064 164.727C23.4432 161.564 13.8905 165.989 10.7274 174.609C7.56424 183.23 11.9885 192.783 20.6093 195.946C29.2301 199.109 38.7828 194.685 41.946 186.064C45.1091 177.443 40.6848 167.89 32.064 164.727Z" fill="#E2E8F0"/>
<path d="M25 95.6684H39.3007C41.8232 95.6684 44.0974 96.1153 46.1233 97.0091C48.1492 97.883 49.7581 99.2237 50.9498 101.031C52.1614 102.819 52.7672 105.063 52.7672 107.764C52.7672 110.446 52.1614 112.73 50.9498 114.617C49.7581 116.484 48.1492 117.914 46.1233 118.907C44.0974 119.88 41.8232 120.367 39.3007 120.367H33.9081V134.995H25V95.6684ZM33.9081 113.336H36.8279C38.0395 113.336 39.1219 113.157 40.0753 112.799C41.0486 112.442 41.8232 111.876 42.3992 111.101C42.9752 110.307 43.2632 109.264 43.2632 107.973C43.2632 106.662 42.9752 105.629 42.3992 104.874C41.8232 104.1 41.0486 103.544 40.0753 103.206C39.1219 102.868 38.0395 102.7 36.8279 102.7H33.9081V113.336ZM66.9627 134.995H57.8758V94H66.9627V134.995ZM91.7804 134.995V131.033C91.6016 131.43 91.1448 132.006 90.4099 132.761C89.6949 133.516 88.7415 134.201 87.5498 134.817C86.358 135.412 84.9677 135.71 83.3787 135.71C80.9953 135.71 78.9098 135.134 77.1222 133.982C75.3346 132.81 73.9442 131.251 72.9511 129.305C71.958 127.338 71.4615 125.164 71.4615 122.78C71.4615 120.397 71.958 118.232 72.9511 116.285C73.9442 114.319 75.3346 112.75 77.1222 111.578C78.9098 110.406 80.9953 109.82 83.3787 109.82C84.9081 109.82 86.2488 110.068 87.4008 110.565C88.5528 111.042 89.4863 111.618 90.2013 112.293C90.9164 112.948 91.4129 113.554 91.691 114.11V110.535H100.689V134.995H91.7804ZM80.3398 122.78C80.3398 123.892 80.598 124.895 81.1144 125.789C81.6309 126.663 82.3161 127.348 83.1702 127.845C84.0441 128.342 85.0074 128.59 86.0601 128.59C87.1525 128.59 88.1158 128.342 88.95 127.845C89.7842 127.348 90.4397 126.663 90.9164 125.789C91.4129 124.895 91.6612 123.892 91.6612 122.78C91.6612 121.668 91.4129 120.675 90.9164 119.801C90.4397 118.907 89.7842 118.212 88.95 117.715C88.1158 117.199 87.1525 116.941 86.0601 116.941C85.0074 116.941 84.0441 117.199 83.1702 117.715C82.3161 118.212 81.6309 118.907 81.1144 119.801C80.598 120.675 80.3398 121.668 80.3398 122.78ZM123.269 109.82C124.977 109.82 126.645 110.168 128.274 110.863C129.903 111.558 131.243 112.66 132.296 114.17C133.349 115.66 133.875 117.626 133.875 120.069V134.995H124.788V121.559C124.788 119.811 124.371 118.5 123.537 117.626C122.703 116.732 121.61 116.285 120.26 116.285C119.366 116.285 118.522 116.524 117.727 117C116.953 117.457 116.317 118.113 115.821 118.967C115.344 119.801 115.106 120.764 115.106 121.857V134.995H106.048V110.535H115.106V114.14C115.344 113.485 115.84 112.829 116.595 112.174C117.37 111.498 118.333 110.942 119.485 110.505C120.657 110.049 121.918 109.82 123.269 109.82ZM155.972 109.82C157.68 109.82 159.348 110.168 160.977 110.863C162.606 111.558 163.946 112.66 164.999 114.17C166.052 115.66 166.578 117.626 166.578 120.069V134.995H157.491V121.559C157.491 119.811 157.074 118.5 156.24 117.626C155.406 116.732 154.313 116.285 152.963 116.285C152.069 116.285 151.225 116.524 150.43 117C149.656 117.457 149.02 118.113 148.523 118.967C148.047 119.801 147.808 120.764 147.808 121.857V134.995H138.751V110.535H147.808V114.14C148.047 113.485 148.543 112.829 149.298 112.174C150.073 111.498 151.036 110.942 152.188 110.505C153.36 110.049 154.621 109.82 155.972 109.82ZM172.139 134.995V110.535H181.197V134.995H172.139ZM176.786 105.5C175.357 105.5 174.146 105.004 173.152 104.01C172.159 102.998 171.663 101.796 171.663 100.406C171.663 99.0152 172.159 97.8135 173.152 96.8006C174.165 95.7677 175.377 95.2513 176.786 95.2513C177.721 95.2513 178.575 95.4897 179.349 95.9663C180.124 96.4232 180.75 97.0389 181.226 97.8135C181.703 98.5881 181.941 99.4521 181.941 100.406C181.941 101.796 181.435 102.998 180.422 104.01C179.409 105.004 178.197 105.5 176.786 105.5ZM185.35 110.535H189.521V100.495H198.489V110.535H203.971V117.983H198.489V124.806C198.489 125.819 198.638 126.643 198.936 127.279C199.234 127.895 199.78 128.202 200.575 128.202C201.111 128.202 201.568 128.083 201.945 127.845C202.322 127.607 202.551 127.448 202.63 127.368L205.729 133.804C205.59 133.923 205.153 134.141 204.418 134.459C203.703 134.777 202.789 135.065 201.677 135.323C200.565 135.581 199.323 135.71 197.953 135.71C195.51 135.71 193.494 135.025 191.905 133.655C190.316 132.264 189.521 130.129 189.521 127.249V117.983H185.35V110.535Z" fill="#F1F5F9"/>
</svg>
