<svg width="1054" height="586" viewBox="0 0 1054 586" fill="none" xmlns="http://www.w3.org/2000/svg">
<g clip-path="url(#clip0_106_30)">
<circle cx="762.718" cy="292.718" r="281.718" stroke="#334155" stroke-width="2"/>
<circle cx="762.718" cy="292.718" r="255.694" stroke="#334155" stroke-width="2"/>
<circle cx="762.718" cy="292.718" r="229.669" stroke="#334155" stroke-width="2"/>
<circle cx="762.718" cy="292.718" r="203.645" stroke="#334155" stroke-width="2"/>
<circle cx="762.718" cy="292.718" r="177.621" stroke="#334155" stroke-width="2"/>
<circle cx="762.718" cy="292.718" r="151.597" stroke="#334155" stroke-width="2"/>
<circle cx="762.718" cy="292.718" r="125.572" stroke="#334155" stroke-width="2"/>
<circle cx="762.718" cy="292.718" r="99.5482" stroke="#334155" stroke-width="2"/>
<circle cx="762.718" cy="292.718" r="73.5239" stroke="#334155" stroke-width="2"/>
<circle cx="762.718" cy="292.718" r="47.4997" stroke="#334155" stroke-width="2"/>
<circle cx="762.718" cy="292.718" r="21.4755" stroke="#334155" stroke-width="2"/>
<path d="M41.3173 226V586" stroke="#3F9EF6" stroke-opacity="0.7" stroke-width="4" stroke-linecap="round" stroke-linejoin="round" stroke-dasharray="1 36"/>
<path d="M88.8622 226V586" stroke="#3F9EF6" stroke-opacity="0.7" stroke-width="4" stroke-linecap="round" stroke-linejoin="round" stroke-dasharray="1 36"/>
<path d="M136.407 226V586" stroke="#3F9EF6" stroke-opacity="0.7" stroke-width="4" stroke-linecap="round" stroke-linejoin="round" stroke-dasharray="1 36"/>
<path d="M183.952 226V586" stroke="#3F9EF6" stroke-opacity="0.7" stroke-width="4" stroke-linecap="round" stroke-linejoin="round" stroke-dasharray="1 36"/>
<path d="M231.497 226V586" stroke="#3F9EF6" stroke-opacity="0.7" stroke-width="4" stroke-linecap="round" stroke-linejoin="round" stroke-dasharray="1 36"/>
<path d="M279.042 226V586" stroke="#3F9EF6" stroke-opacity="0.7" stroke-width="4" stroke-linecap="round" stroke-linejoin="round" stroke-dasharray="1 36"/>
<path d="M326.587 226V586" stroke="#3F9EF6" stroke-opacity="0.7" stroke-width="4" stroke-linecap="round" stroke-linejoin="round" stroke-dasharray="1 36"/>
<path d="M374.131 226V586" stroke="#3F9EF6" stroke-opacity="0.7" stroke-width="4" stroke-linecap="round" stroke-linejoin="round" stroke-dasharray="1 36"/>
<path d="M421.676 226V586" stroke="#3F9EF6" stroke-opacity="0.7" stroke-width="4" stroke-linecap="round" stroke-linejoin="round" stroke-dasharray="1 36"/>
</g>
<defs>
<clipPath id="clip0_106_30">
<rect width="1054" height="586" fill="white"/>
</clipPath>
</defs>
</svg>
